<svg enable-background="new 0 0 256 256" height="512" viewBox="0 0 256 256" width="512" xmlns="http://www.w3.org/2000/svg"><path d="m245.36 115.012h-142.032c-2.761 0-5-2.239-5-5v-81.336c0-2.761 2.239-5 5-5h142.032c2.761 0 5 2.239 5 5v81.337c0 2.761-2.239 4.999-5 4.999z" fill="#87828e"/><path d="m191.826 80.835h40.856v18.857h-40.856z" fill="#f9d335"/><path d="m34.891 122.644-19.968 5.35 7.331 7.331c-22.194 22.194-22.194 58.181 0 80.375s58.18 22.194 80.374 0l-17.296-17.296c-12.641 12.641-33.141 12.641-45.782 0-12.65-12.65-12.65-33.151-.01-45.791l4.617 4.617 5.35-19.968 5.35-19.968z" fill="#ff4a73"/><path d="m233.28 218.093h-157.587c-2.761 0-5-2.239-5-5v-93.081c0-2.761 2.239-5 5-5h157.587c2.761 0 5 2.239 5 5v93.081c0 2.762-2.239 5-5 5z" fill="#44c7b6"/><path d="m214.924 198.842h-120.875c-2.761 0-5-2.239-5-5v-54.578c0-2.761 2.239-5 5-5h120.875c2.761 0 5 2.239 5 5v54.578c0 2.761-2.239 5-5 5z" fill="#44c7b6"/><path d="m219.924 139.26v54.58c0 2.76-2.24 5-5 5h-15c2.76 0 5-2.24 5-5v-54.58c0-2.76-2.24-5-5-5h15c2.76 0 5 2.24 5 5z" fill="#3bb2a0"/><path d="m109.044 198.84h-15c-2.76 0-5-2.24-5-5v-54.58c0-2.76 2.24-5 5-5h15c-2.76 0-5 2.24-5 5v54.58c0 2.76 2.24 5 5 5z" fill="#4bdbc3"/><path d="m238.284 120.01v93.08c0 2.76-2.24 5-5 5h-15c2.76 0 5-2.24 5-5v-93.08c0-2.76-2.24-5-5-5h15c2.76 0 5 2.24 5 5z" fill="#3bb2a0"/><path d="m90.694 218.09h-15c-2.76 0-5-2.24-5-5v-93.08c0-2.76 2.24-5 5-5h15c-2.76 0-5 2.24-5 5v93.08c0 2.76 2.24 5 5 5z" fill="#4bdbc3"/><path d="m250.364 28.68v81.33c0 2.76-2.24 5-5 5h-15c2.76 0 5-2.24 5-5v-81.33c0-2.77-2.24-5-5-5h15c2.76 0 5 2.23 5 5z" fill="#796e84"/><path d="m118.324 115.01h-15c-2.76 0-5-2.24-5-5v-81.33c0-2.77 2.24-5 5-5h15c-2.76 0-5 2.23-5 5v81.33c0 2.76 2.24 5 5 5z" fill="#a4a4a5"/><path d="m217.684 80.83h15v18.86h-15z" fill="#f2c300"/><path d="m191.824 80.83h15v18.86h-15z" fill="#f9e27d"/><path d="m98.328 44.791h152.031v21.705h-152.031z" fill="#f9d335"/><path d="m235.364 44.79h15v21.71h-15z" fill="#f2c300"/><path d="m98.324 44.79h15v21.71h-15z" fill="#f9e27d"/><path d="m69.944 231.84c-16.93 2.25-34.68-3.13-47.69-16.14-22.19-22.2-22.19-58.18 0-80.38l-7.33-7.33 19.97-5.35 19.96-5.35-1.16 4.33-3.8 1.02-19.97 5.35 7.33 7.33c-22.19 22.2-22.19 58.18 0 80.38 9.18 9.18 20.73 14.56 32.69 16.14z" fill="#f973a3"/><g fill="#5f266d"><path d="m245.364 19.68h-142.04c-4.96 0-9 4.03-9 9 0 87.29-.032 81.573.06 82.33h-18.69c-4.96 0-9 4.04-9 9v83.54c-8.6 1.3-17.7-1.36-24.32-7.98-10.1-10.1-10.98-26-2.63-37.1l1.59 1.59c2.168 2.168 5.893 1.173 6.69-1.8l10.7-39.93c.786-2.933-1.895-5.706-4.9-4.9l-39.94 10.7c-2.953.792-3.962 4.518-1.79 6.69l4.6 4.6c-20.95 23.86-20.04 60.34 2.73 83.11 22.472 22.471 58.292 23.65 82.15 3.56h131.71c4.96 0 9-4.03 9-9 0-98.723.033-93.31-.06-94.08h3.14c4.96 0 9-4.04 9-9 0-64.165 0-25.455 0-81.33 0-4.97-4.04-9-9-9zm1 90.33c0 .55-.45 1-1 1-6.368 0-135.932 0-142.04 0-.55 0-1-.45-1-1v-39.51h144.04zm-12.08 10v93.08c0 .55-.45 1-1 1-2.471 0-154.719 0-157.59 0-.55 0-1-.45-1-1 0-11.958 0-85.577 0-93.08 0-.55.45-1 1-1h27.63 129.96c.55 0 1 .45 1 1zm-131.96-91.33c0-.56.45-1 1-1h142.04c.55 0 1 .44 1 1v12.11h-144.04zm144.04 20.11v13.71h-144.04v-13.71zm-221.28 164.08c-20.6-20.6-20.6-54.12 0-74.72 1.56-1.56 1.56-4.09 0-5.65l-2.43-2.44c16.316-4.365 10.262-2.744 26.55-7.11l-7.12 26.57c-1.674-1.349-3.966-1.144-5.37.26-14.18 14.18-14.18 37.26.01 51.45 8.17 8.18 19.29 11.64 29.97 10.39v1.47c0 4.97 4.04 9 9 9h11.69c-19.99 10.7-45.46 7.62-62.3-9.22z"/><path d="m122.684 103.23c3.3 0 6.31-1.28 8.55-3.35 2.24 2.08 5.24 3.35 8.54 3.35 6.94 0 12.57-5.63 12.57-12.57 0-6.95-5.63-12.58-12.57-12.58-3.3 0-6.3 1.27-8.54 3.35-2.24-2.07-5.25-3.35-8.55-3.35-6.94 0-12.57 5.63-12.57 12.58 0 6.94 5.63 12.57 12.57 12.57z"/><path d="m191.824 103.69h40.86c2.21 0 4-1.79 4-4v-18.86c0-2.2-1.79-4-4-4h-40.86c-2.21 0-4 1.8-4 4v18.86c0 2.21 1.79 4 4 4zm4-18.86h32.86v10.86h-32.86z"/><path d="m85.044 139.26c0 .592-.011 54.559.02 55.15.29 4.7 4.21 8.43 8.98 8.43h1.39 119.49c4.96 0 9-4.04 9-9v-54.58c0-4.96-4.04-9-9-9h-120.88c-4.96 0-9 4.04-9 9zm130.88 0v54.58c0 .55-.45 1-1 1h-120.88c-.55 0-1-.45-1-1v-54.58c0-.55.45-1 1-1h120.88c.55 0 1 .45 1 1z"/><path d="m154.814 161.06c-9.287-3.839-3.456-7.634 2.33-5.16 4.301 1.878 7.213-5.013 2.88-6.87-1.18-.5-2.46-.85-3.83-1.04v-1.39c0-4.67-7.03-4.641-7.03 0v1.83c-4.58 1.37-7.4 4.97-7.4 9.48 0 5.88 4.73 8.53 9.33 10.33 8.441 3.431 3.183 9.245-4.28 5.69-4.264-2.012-7.277 4.73-3.25 6.73 1.51.76 3.36 1.3 5.25 1.55v1.57c0 4.63 7.09 4.679 7.09 0v-1.98c9.099-2.718 12.044-15.372-1.09-20.74z"/><path d="m180.504 181.01h-4.16c-5.285 0-5.293 8 0 8h4.16c5.285 0 5.293-8 0-8z"/><path d="m201.984 168.34v11.67c0 .55-.45 1-1 1h-5.48c-5.285 0-5.293 8 0 8h5.48c4.96 0 9-4.04 9-9v-11.67c0-5.285-8-5.293-8 0z"/></g></svg>